Coordinates
version=1
nRows=18
nColumns=63
inDegrees=yes

Units are S.I. units (second, meters, Newtons, ...)
If the header above contains a line with 'inDegrees', this indicates whether rotational values are in degrees (yes) or radians (no).

endheader
time	pelvis_tilt	pelvis_list	pelvis_rotation	pelvis_tx	pelvis_ty	pelvis_tz	hip_flexion_r	hip_adduction_r	hip_rotation_r	knee_angle_r	knee_angle_r_beta	ankle_angle_r	subtalar_angle_r	mtp_angle_r	hip_flexion_l	hip_adduction_l	hip_rotation_l	knee_angle_l	knee_angle_l_beta	ankle_angle_l	subtalar_angle_l	mtp_angle_l	L5_S1_Flex_Ext	L5_S1_Lat_Bending	L5_S1_axial_rotation	L4_L5_Flex_Ext	L4_L5_Lat_Bending	L4_L5_axial_rotation	L3_L4_Flex_Ext	L3_L4_Lat_Bending	L3_L4_axial_rotation	L2_L3_Flex_Ext	L2_L3_Lat_Bending	L2_L3_axial_rotation	L1_L2_Flex_Ext	L1_L2_Lat_Bending	L1_L2_axial_rotation	L1_T12_Flex_Ext	L1_T12_Lat_Bending	L1_T12_axial_rotation	Abs_r3	Abs_r2	Abs_r1	Abs_t1	Abs_t2	neck_flexion	neck_bending	neck_rotation	arm_flex_r	arm_add_r	arm_rot_r	elbow_flex_r	pro_sup_r	wrist_flex_r	wrist_dev_r	arm_flex_l	arm_add_l	arm_rot_l	elbow_flex_l	pro_sup_l	wrist_flex_l	wrist_dev_l
0.000000	-4.655880	-3.108883	93.566990	0.240944	0.804242	0.734779	5.278105	-2.310325	-2.228249	6.703188	0.116993	24.720027	-5.202224	0.000000	8.751747	2.268388	-2.826571	8.418242	0.146926	32.417527	5.964780	0.000000	0.492467	-0.095544	-1.655774	0.914561	-0.127073	-1.759259	0.809074	-0.232306	-1.759259	0.562841	-0.232306	-1.448802	0.457305	-0.194833	-1.345316	0.281396	-0.147998	-1.241830	3.517644	-1.080813	-9.208916	0.000000	0.000000	28.237835	11.975810	15.893326	19.825667	-2.276319	77.209935	36.792087	5.593287	-8.849016	17.303295	20.172650	-6.087214	57.505782	43.765990	65.428901	6.407088	9.097262
0.016667	-4.718489	-3.157678	92.298336	0.243028	0.804171	0.736459	5.882982	-2.274540	-1.179814	6.969762	0.121645	25.009925	-4.672584	0.000000	8.578579	2.171260	-2.732851	7.879055	0.137515	31.928094	4.523291	0.000000	0.500332	-0.113467	-1.282056	0.929166	-0.150912	-1.362185	0.821995	-0.275885	-1.362185	0.571829	-0.275885	-1.121799	0.464608	-0.231383	-1.041671	0.285890	-0.175761	-0.961542	3.573821	-1.283567	-7.130413	0.000000	0.000000	28.252831	10.852416	13.631630	19.722464	-2.748474	76.406845	37.306557	11.841592	-5.315233	15.259125	20.190790	-6.398138	59.593653	44.366944	59.625180	6.739308	13.972101
0.033333	-4.777245	-3.188715	91.309175	0.244690	0.804144	0.737863	6.361557	-2.256166	-0.336819	7.186274	0.125424	25.252379	-4.277655	0.000000	8.465293	2.095254	-2.717842	7.509914	0.131073	31.565000	3.484678	0.000000	0.503787	-0.129546	-0.964622	0.935584	-0.172296	-1.024911	0.827672	-0.314977	-1.024911	0.575779	-0.314977	-0.844044	0.467817	-0.264169	-0.783755	0.287864	-0.200666	-0.723466	3.598503	-1.465446	-5.364937	0.000000	0.000000	28.260766	9.959242	11.738825	19.553743	-3.179642	75.490310	37.800497	17.128453	-2.383700	13.495732	20.247192	-6.675289	61.488271	44.849442	54.352070	6.930804	17.748930
0.050000	-4.832760	-3.203647	90.572949	0.245970	0.804156	0.739012	6.725233	-2.254047	0.316515	7.357325	0.128410	25.452045	-4.000267	0.000000	8.405213	2.038986	-2.772958	7.293265	0.127291	31.316144	2.808521	0.000000	0.503321	-0.143952	-0.699058	0.934718	-0.191457	-0.742749	0.826906	-0.350006	-0.742749	0.575246	-0.350006	-0.611676	0.467384	-0.293548	-0.567984	0.287598	-0.222982	-0.524293	3.595173	-1.628419	-3.887949	0.000000	0.000000	28.262454	9.276853	10.185336	19.328802	-3.571351	74.480342	38.273100	21.527653	-0.005459	11.997023	20.337139	-6.919927	63.198618	45.222459	49.607710	7.007592	20.533462
0.066667	-4.885647	-3.204132	90.063097	0.246905	0.804200	0.739928	6.985412	-2.267025	0.795968	7.487516	0.130682	25.613580	-3.823246	0.000000	8.391663	2.001071	-2.889614	7.211555	0.125865	31.169427	2.454402	0.000000	0.499421	-0.156862	-0.480952	0.927474	-0.208627	-0.511012	0.820498	-0.381395	-0.511012	0.570788	-0.381395	-0.420833	0.463762	-0.319874	-0.390774	0.285369	-0.242980	-0.360714	3.567311	-1.774459	-2.674911	0.000000	0.000000	28.258712	8.785814	8.941586	19.056939	-3.925130	73.396950	38.723557	25.112973	1.868447	10.746907	20.455911	-7.133314	64.733673	45.494973	45.390243	6.995687	22.431407
0.083333	-4.936518	-3.191823	89.753058	0.247534	0.804270	0.740634	7.153498	-2.293945	1.117321	7.581450	0.132321	25.741640	-3.729421	0.000000	8.417970	1.980124	-3.059224	7.247228	0.126488	31.112748	2.381902	0.000000	0.492573	-0.168449	-0.305893	0.914757	-0.224038	-0.325011	0.809248	-0.409568	-0.325011	0.562962	-0.409568	-0.267656	0.457403	-0.343502	-0.248538	0.281456	-0.260928	-0.229420	3.518400	-1.905534	-1.701285	0.000000	0.000000	28.250355	8.466690	7.978000	18.747454	-4.242505	72.260147	39.151060	27.958197	3.286977	9.729290	20.598790	-7.316710	66.102416	45.675960	41.697807	6.921104	23.548479
0.100000	-4.985986	-3.168377	89.616274	0.247895	0.804360	0.741152	7.240893	-2.333648	1.296352	7.643728	0.133408	25.840882	-3.701619	0.000000	8.477457	1.974759	-3.273201	7.382733	0.128853	31.134008	2.550602	0.000000	0.483266	-0.178888	-0.169468	0.897473	-0.237921	-0.180060	0.793958	-0.434948	-0.180060	0.552325	-0.434948	-0.148285	0.448761	-0.364789	-0.137693	0.276138	-0.277098	-0.127101	3.451921	-2.023617	-0.942532	0.000000	0.000000	28.238197	8.300045	7.265002	18.409644	-4.525004	71.089941	39.554801	30.137106	4.299089	8.928079	20.761059	-7.471377	67.313826	45.774397	38.528545	6.809857	23.990389
0.116667	-5.034663	-3.135448	89.626184	0.248025	0.804463	0.741504	7.259001	-2.384978	1.348841	7.678952	0.134023	25.915963	-3.722669	0.000000	8.563450	1.983593	-3.522959	7.600515	0.132654	31.221107	2.920084	0.000000	0.471987	-0.188352	-0.067266	0.876527	-0.250508	-0.071470	0.775427	-0.457960	-0.071470	0.539434	-0.457960	-0.058858	0.438287	-0.384088	-0.054654	0.269693	-0.291758	-0.050450	3.371355	-2.130678	-0.374114	0.000000	0.000000	28.223055	8.266445	6.773016	18.052808	-4.774155	69.906345	39.933970	31.723481	4.953740	8.327184	20.937998	-7.598574	68.376885	45.799259	35.880597	6.687963	23.862849
0.133333	-5.083163	-3.094693	89.756229	0.247963	0.804573	0.741713	7.219224	-2.446778	1.290569	7.691723	0.134246	25.971538	-3.775398	0.000000	8.669272	2.005239	-3.799913	7.883020	0.137585	31.361946	3.449929	0.000000	0.459223	-0.197016	0.005125	0.852823	-0.262032	0.005446	0.754457	-0.479025	0.005446	0.524846	-0.479025	0.004485	0.426434	-0.401756	0.004164	0.262400	-0.305178	0.003844	3.280184	-2.228688	0.028506	0.000000	0.000000	28.205743	8.346454	6.472466	17.686244	-4.991486	68.729368	40.287761	32.791107	5.299888	7.910509	21.124890	-7.699562	69.300570	45.759524	33.752103	6.581435	23.271572
0.150000	-5.132098	-3.047767	89.979847	0.247748	0.804684	0.741800	7.132965	-2.517892	1.137314	7.686643	0.134157	26.012266	-3.842635	0.000000	8.788250	2.038313	-4.095476	8.212694	0.143339	31.544424	4.099719	0.000000	0.445462	-0.205054	0.052119	0.827267	-0.272722	0.055376	0.731849	-0.498569	0.055376	0.509118	-0.498569	0.045604	0.413656	-0.418147	0.042346	0.254537	-0.317629	0.039089	3.181890	-2.319617	0.289868	0.000000	0.000000	28.187078	8.520637	6.333777	17.319251	-5.178524	67.579022	40.615365	33.413764	5.386491	7.661964	21.317016	-7.775602	70.093863	45.664168	32.141205	6.516290	22.322268
0.166667	-5.182081	-2.996324	90.270480	0.247417	0.804789	0.741787	7.011627	-2.597161	0.904857	7.668314	0.133837	26.042802	-3.907207	0.000000	8.913708	2.081430	-4.401062	8.571985	0.149609	31.756442	4.829034	0.000000	0.431191	-0.212641	0.078125	0.800765	-0.282812	0.083008	0.708404	-0.517015	0.083008	0.492808	-0.517015	0.068360	0.400404	-0.433617	0.063477	0.246383	-0.329381	0.058594	3.079955	-2.405435	0.434510	0.000000	0.000000	28.167873	8.769559	6.327372	16.961126	-5.336797	66.475316	40.915973	33.665234	5.262507	7.565456	21.509658	-7.827955	70.765743	45.522167	31.046042	6.518542	21.120650
0.183333	-5.250629	-2.957069	90.596109	0.247027	0.804855	0.741638	6.884370	-2.711787	0.402623	7.664395	0.133769	26.059460	-3.682800	0.000000	9.036341	2.154970	-4.646928	8.913544	0.155571	31.954446	5.490289	0.000000	0.420552	-0.222830	0.080704	0.781008	-0.296364	0.085749	0.690926	-0.541788	0.085749	0.480649	-0.541788	0.070616	0.390525	-0.454394	0.065572	0.240304	-0.345163	0.060528	3.003964	-2.520695	0.448854	0.000000	0.000000	28.154735	9.079924	6.414954	16.604531	-5.469755	65.432713	41.173858	33.869549	5.057104	7.413308	21.716619	-7.898802	71.539380	45.355501	30.251085	6.577614	20.028593
0.200000	-5.313405	-2.910588	90.892806	0.246619	0.804912	0.741495	6.758590	-2.822772	-0.064019	7.658782	0.133671	26.122463	-3.435491	0.000000	9.142757	2.223734	-4.925669	9.238913	0.161249	32.163159	6.157829	0.000000	0.409199	-0.231141	0.076759	0.759924	-0.307418	0.081557	0.672274	-0.561996	0.081557	0.467674	-0.561996	0.067164	0.379983	-0.471343	0.062367	0.233817	-0.358037	0.057570	2.922871	-2.614714	0.426913	0.000000	0.000000	28.140866	9.391611	6.547995	16.323671	-5.574123	64.594615	41.406650	33.607199	4.692250	7.556060	21.875229	-7.908314	72.015618	45.143761	30.380898	6.983891	18.932035
0.216667	-5.368373	-2.855769	91.163230	0.246218	0.804950	0.741379	6.625819	-2.919201	-0.430298	7.636380	0.133280	26.191341	-3.277849	0.000000	9.229958	2.282951	-5.224565	9.544391	0.166581	32.372875	6.824333	0.000000	0.396979	-0.237663	0.063953	0.737229	-0.316092	0.067950	0.652196	-0.577854	0.067950	0.453707	-0.577854	0.055959	0.368634	-0.484642	0.051962	0.226834	-0.368140	0.047965	2.835579	-2.688491	0.355686	0.000000	0.000000	28.126312	9.737764	6.767998	16.167490	-5.650423	64.101522	41.591697	33.029016	4.290766	7.822137	21.954681	-7.872023	72.124008	44.922501	31.230227	7.733442	18.115237
0.233333	-5.431131	-2.800569	91.373799	0.245903	0.804950	0.741276	6.501024	-3.008399	-0.617287	7.605747	0.132745	26.223430	-3.307893	0.000000	9.286844	2.348321	-5.493632	9.793116	0.170922	32.553803	7.388114	0.000000	0.385766	-0.245212	0.058666	0.716407	-0.326132	0.062333	0.633776	-0.596209	0.062333	0.440893	-0.596209	0.051333	0.358223	-0.500037	0.047666	0.220427	-0.379834	0.044000	2.755491	-2.773891	0.326284	0.000000	0.000000	28.113581	10.045291	6.941218	16.010142	-5.695464	63.535224	41.742998	32.651864	3.956074	8.319143	22.030510	-7.813255	72.171715	44.692087	32.745833	8.632266	17.342236
0.250000	-5.499154	-2.742931	91.532562	0.245657	0.804920	0.741218	6.386632	-3.110193	-0.941518	7.580546	0.132305	26.298804	-3.094371	0.000000	9.317287	2.419770	-5.691375	9.992417	0.174401	32.701263	7.808063	0.000000	0.375008	-0.253604	0.060832	0.696428	-0.337293	0.064634	0.616101	-0.616613	0.064634	0.428597	-0.616613	0.053228	0.348233	-0.517149	0.049426	0.214280	-0.392832	0.045624	2.678648	-2.868818	0.338331	0.000000	0.000000	28.103392	10.327488	7.065537	15.883889	-5.719213	63.011835	41.868832	32.394618	3.667989	8.854520	22.145428	-7.740055	72.320026	44.467101	34.472382	9.536370	16.724519
0.266667	-5.576950	-2.689636	91.598255	0.245556	0.804838	0.741177	6.296952	-3.205389	-1.130399	7.565896	0.132050	26.340207	-2.986018	0.000000	9.314461	2.494562	-5.853985	10.119014	0.176610	32.813477	8.091345	0.000000	0.366256	-0.263522	0.081202	0.680174	-0.350484	0.086277	0.601722	-0.640726	0.086277	0.418594	-0.640726	0.071052	0.340105	-0.537373	0.065977	0.209279	-0.408195	0.060902	2.616131	-2.981008	0.451622	0.000000	0.000000	28.096650	10.545122	7.104034	15.760556	-5.737169	62.474641	42.015770	32.178802	3.392424	9.459607	22.280358	-7.656165	72.508717	44.229171	36.690648	10.493812	16.122708
0.283333	-5.658579	-2.639167	91.557173	0.245618	0.804720	0.741152	6.232065	-3.295220	-1.278873	7.561988	0.131982	26.381823	-2.814521	0.000000	9.278111	2.566231	-5.989581	10.177285	0.177627	32.887652	8.209803	0.000000	0.359262	-0.274304	0.122876	0.667186	-0.364824	0.130555	0.590232	-0.666942	0.130555	0.410601	-0.666942	0.107516	0.333611	-0.559360	0.099836	0.205282	-0.424897	0.092157	2.566174	-3.102980	0.683397	0.000000	0.000000	28.093830	10.702447	7.050105	15.638163	-5.746337	61.927757	42.162885	32.144775	3.140088	10.024985	22.459238	-7.570214	72.830402	44.007334	39.131710	11.342253	15.526551
